<?xml version="1.0" standalone="no"?>
<!DOCTYPE svg PUBLIC "-//W3C//DTD SVG 20010904//EN"
 "http://www.w3.org/TR/2001/REC-SVG-20010904/DTD/svg10.dtd">
<svg version="1.0" xmlns="http://www.w3.org/2000/svg"
 width="16.000000pt" height="16.000000pt" viewBox="0 0 16.000000 16.000000"
 preserveAspectRatio="xMidYMid meet">

<g transform="translate(0.000000,16.000000) scale(0.100000,-0.100000)"
fill="#f1f1f1" stroke="none">
<path d="M2295 4954 c-16 -2 -73 -9 -125 -15 -288 -32 -622 -140 -885 -287
-699 -388 -1156 -1060 -1267 -1862 -17 -124 -17 -496 0 -620 44 -318 150 -639
295 -895 549 -972 1640 -1456 2728 -1210 604 136 1150 514 1501 1040 44 66 84
122 89 123 5 2 9 11 9 19 0 9 15 44 34 77 90 162 180 409 226 621 44 203 54
302 54 535 0 233 -10 332 -54 535 -46 212 -136 459 -226 621 -19 33 -34 71
-34 82 0 12 -6 22 -12 22 -7 1 -33 33 -58 73 -118 190 -316 416 -500 569 -356
297 -776 484 -1244 554 -96 14 -467 27 -531 18z m-691 -1254 c38 -6 75 -15 82
-21 7 -6 18 -9 26 -8 7 1 22 -1 33 -5 11 -4 34 -13 50 -19 17 -6 32 -13 35
-16 3 -3 32 -19 65 -35 40 -19 88 -57 141 -110 88 -88 89 -89 161 -242 8 -17
20 -63 26 -102 7 -39 16 -74 20 -78 9 -10 9 -238 0 -248 -4 -4 -13 -39 -20
-78 -6 -39 -18 -85 -26 -102 -40 -85 -49 -103 -64 -131 -21 -39 -159 -177
-198 -198 -16 -9 -47 -25 -67 -34 -21 -10 -38 -24 -38 -30 0 -7 25 -42 55 -78
31 -36 53 -65 50 -65 -4 0 32 -47 79 -105 47 -58 86 -108 86 -111 0 -3 29 -42
65 -85 36 -43 65 -81 65 -84 0 -4 28 -41 63 -83 34 -42 67 -84 72 -93 6 -10
31 -45 58 -79 26 -34 47 -70 47 -81 0 -10 -14 -34 -30 -53 l-31 -35 -963 0
-963 0 -24 25 -24 26 -3 1153 -2 1153 26 31 26 31 526 0 c298 0 557 -5 596
-10z m2256 -1 c35 -5 70 -15 77 -21 7 -5 19 -8 27 -5 7 3 17 2 22 -2 5 -4 28
-14 52 -21 23 -7 42 -16 42 -21 0 -4 10 -9 23 -13 31 -7 140 -108 189 -174 22
-30 44 -71 50 -91 5 -20 16 -51 24 -69 9 -19 18 -68 21 -110 2 -42 9 -87 15
-99 8 -17 8 -29 0 -45 -6 -13 -13 -58 -15 -100 -3 -42 -13 -94 -22 -115 -38
-87 -45 -103 -46 -111 0 -4 -11 -21 -25 -39 l-24 -32 29 -20 c15 -11 31 -18
35 -14 3 3 6 1 6 -5 0 -7 6 -12 14 -12 8 0 43 -28 78 -63 45 -44 76 -86 103
-142 22 -44 40 -82 41 -85 0 -3 3 -12 7 -20 10 -26 27 -181 27 -249 0 -82 -17
-200 -31 -217 -5 -6 -9 -16 -8 -20 6 -21 -66 -164 -82 -164 -5 0 -9 -6 -9 -13
0 -7 -30 -43 -67 -79 -50 -49 -94 -80 -166 -117 -53 -28 -113 -53 -132 -57
-19 -3 -35 -10 -35 -14 0 -4 -39 -13 -87 -19 -49 -7 -95 -16 -103 -20 -8 -4
-263 -9 -567 -9 l-552 -2 -26 28 -26 27 -2 1158 c-1 636 1 1157 6 1157 4 0 7
7 7 15 0 7 8 19 18 24 24 14 1025 14 1112 0z"/>
</g>
</svg>
