<?xml version="1.0" standalone="no"?>
<!DOCTYPE svg PUBLIC "-//W3C//DTD SVG 20010904//EN"
 "http://www.w3.org/TR/2001/REC-SVG-20010904/DTD/svg10.dtd">
<svg version="1.0" xmlns="http://www.w3.org/2000/svg"
 width="632.000000pt" height="657.000000pt" viewBox="0 0 632.000000 657.000000"
 preserveAspectRatio="xMidYMid meet">

<g transform="translate(0.000000,657.000000) scale(0.100000,-0.100000)"
fill="#000000" stroke="none">
<path d="M4074 6400 c-126 -94 -228 -175 -227 -180 2 -7 460 -624 1427 -1923
217 -291 322 -425 330 -418 6 5 112 84 236 176 124 92 224 171 223 175 -1 4
-298 405 -660 891 -362 486 -753 1011 -868 1167 -115 155 -215 282 -221 282
-6 0 -114 -77 -240 -170z"/>
<path d="M3050 5419 c-100 -121 -180 -222 -179 -223 25 -20 2044 -1706 2124
-1773 61 -51 113 -93 116 -93 8 0 358 416 364 432 2 8 -70 74 -173 160 -97 80
-600 500 -1117 932 -517 432 -943 786 -946 786 -3 0 -88 -99 -189 -221z"/>
<path d="M2242 4158 c-67 -144 -119 -265 -114 -269 4 -3 599 -282 1322 -619
723 -337 1318 -614 1321 -616 9 -5 253 525 246 532 -7 8 -2637 1234 -2646
1234 -3 0 -61 -118 -129 -262z"/>
<path d="M1855 2993 c-68 -304 -103 -479 -97 -484 4 -3 216 -50 472 -103 256
-53 896 -187 1423 -297 528 -110 960 -199 962 -197 5 4 125 562 122 563 -1 1
-236 50 -522 109 -286 59 -927 193 -1425 297 -498 104 -908 189 -911 189 -4 0
-15 -35 -24 -77z"/>
<path d="M510 1180 l0 -1170 -257 -3 c-142 -1 1166 -2 2907 -2 1741 0 3045 1
2898 2 l-268 3 0 1170 0 1170 -295 0 -295 0 0 -880 0 -880 -2055 0 -2055 0 0
880 0 880 -290 0 -290 0 0 -1170z"/>
<path d="M1680 1470 l0 -290 1470 0 1470 0 0 290 0 290 -1470 0 -1470 0 0
-290z"/>
</g>
</svg>
